{"accessors" : [{"bufferView" : 0, "byteOffset" : 0, "componentType" : 5123, "count" : 390, "type" : "SCALAR", "max" : [389], "min" : [0]}, {"bufferView" : 1, "byteOffset" : 0, "componentType" : 5126, "count" : 390, "type" : "VEC3", "max" : [0.4458869695663452, 0.09000000357627869, 0.4458869695663452], "min" : [-0.4458869695663452, 0, -0.4458869695663452], "name" : "POSITION"}, {"bufferView" : 1, "byteOffset" : 12, "componentType" : 5126, "count" : 390, "type" : "VEC3", "max" : [0.9659300446510315, 1.0000044107437134, 0.9659300446510315], "min" : [-0.9659300446510315, -1.0000044107437134, -0.9659300446510315], "name" : "NORMAL"}, {"bufferView" : 1, "byteOffset" : 24, "componentType" : 5126, "count" : 390, "type" : "VEC4", "max" : [-1.0000044107437134, 0, 0, 1], "min" : [-1.0000044107437134, 0, 0, 1], "name" : "TANGENT"}, {"bufferView" : 1, "byteOffset" : 40, "componentType" : 5126, "count" : 390, "type" : "VEC2", "max" : [0, -0], "min" : [0, -0], "name" : "TEXCOORD_0"}, {"bufferView" : 0, "byteOffset" : 780, "componentType" : 5123, "count" : 210, "type" : "SCALAR", "max" : [209], "min" : [0]}, {"bufferView" : 2, "byteOffset" : 0, "componentType" : 5126, "count" : 210, "type" : "VEC3", "max" : [0.32930299639701843, 0.15000000596046448, 0.32930299639701843], "min" : [-0.32930299639701843, 0.07270298898220062, -0.32930299639701843], "name" : "POSITION"}, {"bufferView" : 2, "byteOffset" : 12, "componentType" : 5126, "count" : 210, "type" : "VEC3", "max" : [0.5456761121749878, 1.0000044107437134, 0.5456761121749878], "min" : [-0.5456761121749878, 0.8251471519470215, -0.5456761121749878], "name" : "NORMAL"}, {"bufferView" : 2, "byteOffset" : 24, "componentType" : 5126, "count" : 210, "type" : "VEC4", "max" : [1.0000044107437134, 0, 0.9659309983253479, 1], "min" : [-0.9659309983253479, 0, -0.9659309983253479, 1], "name" : "TANGENT"}, {"bufferView" : 2, "byteOffset" : 40, "componentType" : 5126, "count" : 210, "type" : "VEC2", "max" : [8.36292552947998, 8.716232299804688], "min" : [-8.36292552947998, -8.36292552947998], "name" : "TEXCOORD_0"}, {"bufferView" : 0, "byteOffset" : 1200, "componentType" : 5123, "count" : 180, "type" : "SCALAR", "max" : [179], "min" : [0]}, {"bufferView" : 3, "byteOffset" : 0, "componentType" : 5126, "count" : 180, "type" : "VEC3", "max" : [0.12278000265359879, 0.17000000178813934, 0.13653600215911865], "min" : [-0.14564299583435059, 0.15000000596046448, -0.1343579888343811], "name" : "POSITION"}, {"bufferView" : 3, "byteOffset" : 12, "componentType" : 5126, "count" : 180, "type" : "VEC3", "max" : [0.9947072863578796, 0.9742505550384521, 0.9947072863578796], "min" : [-0.9947072863578796, 0, -0.9947072863578796], "name" : "NORMAL"}, {"bufferView" : 3, "byteOffset" : 24, "componentType" : 5126, "count" : 180, "type" : "VEC4", "max" : [0.9947072863578796, 0, 0.9947072863578796, 1], "min" : [-0.9947072863578796, 0, -0.9947072863578796, 1], "name" : "TANGENT"}, {"bufferView" : 3, "byteOffset" : 40, "componentType" : 5126, "count" : 180, "type" : "VEC2", "max" : [5.148478984832764, 2.912170886993408], "min" : [-5.148478984832764, -6.692914009094238], "name" : "TEXCOORD_0"}, {"bufferView" : 0, "byteOffset" : 1560, "componentType" : 5123, "count" : 36, "type" : "SCALAR", "max" : [35], "min" : [0]}, {"bufferView" : 4, "byteOffset" : 0, "componentType" : 5126, "count" : 36, "type" : "VEC3", "max" : [50, 50, 50], "min" : [-50, -50, -50], "name" : "POSITION"}, {"bufferView" : 4, "byteOffset" : 12, "componentType" : 5126, "count" : 36, "type" : "VEC3", "max" : [1.0000044107437134, 1.0000044107437134, 1.0000044107437134], "min" : [-1.0000044107437134, -1.0000044107437134, -1.0000044107437134], "name" : "NORMAL"}, {"bufferView" : 4, "byteOffset" : 24, "componentType" : 5126, "count" : 36, "type" : "VEC4", "max" : [1.0000044107437134, 0, 1.0000044107437134, 1], "min" : [-0, 0, -1.0000044107437134, 1], "name" : "TANGENT"}, {"bufferView" : 4, "byteOffset" : 40, "componentType" : 5126, "count" : 36, "type" : "VEC2", "max" : [1, -0], "min" : [0, -1], "name" : "TEXCOORD_0"}, {"bufferView" : 4, "byteOffset" : 48, "componentType" : 5126, "count" : 36, "type" : "VEC2", "max" : [0.9966580867767334, -0.004055766388773918], "min" : [0.004055766388773918, -0.6528358459472656], "name" : "TEXCOORD_1"}], "asset" : {"generator" : "Aspose.3D 22.3", "version" : "2.0"}, "buffers" : [{"uri" : "data:application/octet-stream;base64,", "byteLength" : 41108}], "bufferViews" : [{"buffer" : 0, "byteOffset" : 0, "byteLength" : 1632, "target" : 34963}, {"buffer" : 0, "byteOffset" : 1636, "byteLength" : 18720, "byteStride" : 48, "target" : 34962}, {"buffer" : 0, "byteOffset" : 20360, "byteLength" : 10080, "byteStride" : 48, "target" : 34962}, {"buffer" : 0, "byteOffset" : 30444, "byteLength" : 8640, "byteStride" : 48, "target" : 34962}, {"buffer" : 0, "byteOffset" : 39088, "byteLength" : 2016, "byteStride" : 56, "target" : 34962}], "materials" : [{"name" : "_defaultMat", "pbrMetallicRoughness" : {"baseColorFactor" : [1, 1, 1, 1], "metallicFactor" : 0, "roughnessFactor" : 0}, "emissiveFactor" : [0, 0, 0], "alphaMode" : "OPAQUE", "doubleSided" : false}, {"name" : "brownLight", "pbrMetallicRoughness" : {"baseColorFactor" : [0.9764710068702698, 0.7725489735603333, 0.549019992351532, 1], "metallicFactor" : 0, "roughnessFactor" : 0}, "emissiveFactor" : [0, 0, 0], "alphaMode" : "OPAQUE", "doubleSided" : false}, {"name" : "brownDark", "pbrMetallicRoughness" : {"baseColorFactor" : [0.6392160058021545, 0.3882350027561188, 0.2784309983253479, 1], "metallicFactor" : 0, "roughnessFactor" : 0}, "emissiveFactor" : [0, 0, 0], "alphaMode" : "OPAQUE", "doubleSided" : false}, {"name" : "New_Material_1", "pbrMetallicRoughness" : {"baseColorFactor" : [0.8396226167678833, 0.6955020427703857, 0.2455499917268753, 1], "metallicFactor" : 0, "roughnessFactor" : 0}, "emissiveFactor" : [0, 0, 0], "alphaMode" : "OPAQUE", "doubleSided" : false}], "meshes" : [{"primitives" : [{"attributes" : {"POSITION" : 1, "NORMAL" : 2, "TANGENT" : 3, "TEXCOORD_0" : 4}, "indices" : 0, "material" : 0, "mode" : 4}, {"attributes" : {"POSITION" : 6, "NORMAL" : 7, "TANGENT" : 8, "TEXCOORD_0" : 9}, "indices" : 5, "material" : 1, "mode" : 4}, {"attributes" : {"POSITION" : 11, "NORMAL" : 12, "TANGENT" : 13, "TEXCOORD_0" : 14}, "indices" : 10, "material" : 2, "mode" : 4}], "name" : "Scene"}, {"primitives" : [{"attributes" : {"POSITION" : 16, "NORMAL" : 17, "TANGENT" : 18, "TEXCOORD_0" : 19, "TEXCOORD_1" : 20}, "indices" : 15, "material" : 3, "mode" : 4}], "name" : "Scene"}], "nodes" : [{"matrix" : [1, 0, 0, 0, 0, 1, 0, 0, 0, 0, 1, 0, -0.022000000171829015, 0, 0.10100000072270632, 1], "mesh" : 0, "name" : "plateSauerkraut"}, {"matrix" : [-0.00023161349333166467, -0.0010383008348133008, 0, 0, 0.0006582047768265815, -0.00014682556594092065, 0, 0, 0, 0, -0.00022708480537403375, 0, 0, 0.13200000394135714, 0, 1], "mesh" : 1, "name" : "Cube"}, {"matrix" : [-0.00023161296564487883, -0.0010383010718006769, -4.43801240344588E-11, 0, 0.0006420773258398745, -0.0001432276670367901, 0.00014837054319748164, 0, 4.876236235975612E-05, -1.087737057546349E-05, -0.00022152070706419903, 0, 0, 0.13200000394135714, 0.1449999981559813, 1], "mesh" : 1, "name" : "Cube__1_"}, {"matrix" : [0.0002797941340153974, -0.0006717237084802518, 0.000776025412292389, 0, 0.0003946472357809913, -0.0003349774270447635, -0.00043224391342768425, 0, -0.0001741859105028822, -0.00013521992365336864, -5.424336873926972E-05, 0, -0.08200000156648457, 0.13200000394135714, 0.1449999981559813, 1], "mesh" : 1, "name" : "Cube__2_"}, {"matrix" : [0.0002797941340153974, -0.0006717237084802518, 0.000776025412292389, 0, 0.0003946472357809913, -0.0003349774270447635, -0.00043224391342768425, 0, -0.0001741859105028822, -0.00013521992365336864, -5.424336873926972E-05, 0, 0.08399999933317304, 0.13200000394135714, 0.10600000387057662, 1], "mesh" : 1, "name" : "Cube__3_"}, {"children" : [0, 1, 2, 3, 4], "name" : "Biryani"}], "scene" : 0, "scenes" : [{"nodes" : [5]}]}